<svg width="21" height="22" viewBox="0 0 21 22" fill="none" xmlns="http://www.w3.org/2000/svg">
<path fill-rule="evenodd" clip-rule="evenodd" d="M12.5269 1.84831C12.5329 1.79069 12.536 1.73219 12.536 1.67298C12.536 0.749007 11.7869 -2.28882e-05 10.863 -2.28882e-05C9.93899 -2.28882e-05 9.18996 0.749007 9.18996 1.67298C9.18996 1.73222 9.19304 1.79073 9.19905 1.84838C7.71724 2.15828 6.30675 2.86291 5.16961 3.83258C3.61017 5.16235 2.49811 7.05241 2.49811 9.2016V15.8936C2.49811 16.5675 2.42197 17.0135 2.28253 17.2721C2.22307 17.3824 2.16066 17.4418 2.0939 17.48C2.02538 17.5191 1.90164 17.5644 1.6783 17.5666H1.66161C1.19962 17.5666 0.825104 17.9411 0.825104 18.4031C0.825104 18.4031 0.825104 18.4031 0.825104 18.4031C0.825104 18.8651 1.19962 19.2396 1.66161 19.2396C1.66938 19.2396 1.67714 19.2396 1.6849 19.2396H7.87007C7.99363 20.7844 9.28693 22 10.8635 22C12.44 22 13.7333 20.7844 13.8568 19.2396H20.0414C20.0491 19.2396 20.0569 19.2396 20.0647 19.2396C20.4978 19.2396 20.854 18.9105 20.8969 18.4887C20.8997 18.4605 20.9012 18.432 20.9012 18.4031C20.9012 18.4031 20.9012 18.4031 20.9012 18.4031C20.9012 18.3995 20.9012 18.3959 20.9011 18.3923C20.9005 18.3428 20.8955 18.2943 20.8867 18.2472C20.8136 17.8597 20.4734 17.5666 20.0647 17.5666H20.048C19.8246 17.5644 19.7009 17.5191 19.6324 17.48C19.5656 17.4418 19.5032 17.3824 19.4437 17.2721C19.3043 17.0135 19.2282 16.5675 19.2282 15.8936V9.2016C19.2282 7.05241 18.1161 5.16235 16.5567 3.83258C15.4194 2.86284 14.0088 2.15817 12.5269 1.84831ZM17.7627 17.5666C17.5929 17.0283 17.5552 16.4341 17.5552 15.8936V9.2016C17.5552 7.65345 16.7516 6.1975 15.4711 5.10559C14.1892 4.01241 12.4959 3.34608 10.8631 3.34608C9.23035 3.34608 7.53713 4.01241 6.25514 5.10559C4.97465 6.1975 4.17112 7.65345 4.17112 9.2016V15.8936C4.17112 16.4341 4.13334 17.0283 3.96362 17.5666H17.7627ZM12.1714 19.2396H9.55552C9.66963 19.8581 10.2121 20.327 10.8635 20.327C11.5148 20.327 12.0573 19.8581 12.1714 19.2396Z" fill="#805AF1"/>
</svg>
