<svg width="12" height="12" viewBox="0 0 12 12" fill="none" xmlns="http://www.w3.org/2000/svg">
<path d="M4.28571 1.28571C4.28571 0.575893 4.86161 0 5.57143 0H6.42857C7.13839 0 7.71429 0.575893 7.71429 1.28571V10.7143C7.71429 11.4241 7.13839 12 6.42857 12H5.57143C4.86161 12 4.28571 11.4241 4.28571 10.7143V1.28571ZM0 6.42857C0 5.71875 0.575893 5.14286 1.28571 5.14286H2.14286C2.85268 5.14286 3.42857 5.71875 3.42857 6.42857V10.7143C3.42857 11.4241 2.85268 12 2.14286 12H1.28571C0.575893 12 0 11.4241 0 10.7143V6.42857ZM9.85714 1.71429H10.7143C11.4241 1.71429 12 2.29018 12 3V10.7143C12 11.4241 11.4241 12 10.7143 12H9.85714C9.14732 12 8.57143 11.4241 8.57143 10.7143V3C8.57143 2.29018 9.14732 1.71429 9.85714 1.71429Z" fill="black"/>
</svg>
