<svg width="12" height="13" viewBox="0 0 12 13" fill="none" xmlns="http://www.w3.org/2000/svg">
<path d="M4.28571 1.67463C4.28571 0.964809 4.86161 0.388916 5.57143 0.388916H6.42857C7.13839 0.388916 7.71429 0.964809 7.71429 1.67463V11.1032C7.71429 11.813 7.13839 12.3889 6.42857 12.3889H5.57143C4.86161 12.3889 4.28571 11.813 4.28571 11.1032V1.67463ZM0 6.81749C0 6.10767 0.575893 5.53177 1.28571 5.53177H2.14286C2.85268 5.53177 3.42857 6.10767 3.42857 6.81749V11.1032C3.42857 11.813 2.85268 12.3889 2.14286 12.3889H1.28571C0.575893 12.3889 0 11.813 0 11.1032V6.81749ZM9.85714 2.1032H10.7143C11.4241 2.1032 12 2.67909 12 3.38892V11.1032C12 11.813 11.4241 12.3889 10.7143 12.3889H9.85714C9.14732 12.3889 8.57143 11.813 8.57143 11.1032V3.38892C8.57143 2.67909 9.14732 2.1032 9.85714 2.1032Z" fill="white"/>
</svg>
