<svg width="15" height="13" viewBox="0 0 15 13" fill="none" xmlns="http://www.w3.org/2000/svg">
<path fill-rule="evenodd" clip-rule="evenodd" d="M5.86524 5.21973C7.21726 5.21973 8.31336 4.12364 8.31336 2.77161C8.31336 1.41959 7.21726 0.323486 5.86524 0.323486C4.51323 0.323486 3.41712 1.41959 3.41712 2.77161C3.41712 4.12362 4.51323 5.21973 5.86524 5.21973ZM11.3626 5.15554C12.3707 5.15554 13.1879 4.33828 13.1879 3.33018C13.1879 2.32208 12.3707 1.50483 11.3626 1.50483C10.3545 1.50483 9.5372 2.32208 9.5372 3.33018C9.5372 4.33828 10.3545 5.15554 11.3626 5.15554ZM14.991 9.47172C14.6259 7.17392 13.4233 5.79954 11.3617 5.79954C10.5672 5.79954 9.92296 5.99283 9.38605 6.37932C9.45051 6.44377 9.51489 6.50816 9.6008 6.57261C10.4812 7.49606 11.0826 8.82746 11.3617 10.524C11.3617 10.5594 11.3682 10.5949 11.374 10.6268C11.3788 10.6528 11.3832 10.6765 11.3832 10.6958C13.3803 10.7173 15.1412 10.3737 14.9909 9.4717L14.991 9.47172ZM1.01104 10.6527C0.817768 11.8338 3.17999 12.3062 5.86433 12.3062C8.54868 12.3062 10.9109 11.8337 10.7176 10.6527C10.2022 7.5818 8.59163 5.75645 5.86433 5.75645C3.13704 5.75645 1.52645 7.56033 1.01104 10.6527Z" fill="black"/>
</svg>
