<svg width="15" height="13" viewBox="0 0 15 13" fill="none" xmlns="http://www.w3.org/2000/svg">
<path fill-rule="evenodd" clip-rule="evenodd" d="M5.86524 5.10865C7.21726 5.10865 8.31336 4.01256 8.31336 2.66052C8.31336 1.30851 7.21726 0.212402 5.86524 0.212402C4.51323 0.212402 3.41712 1.30851 3.41712 2.66052C3.41712 4.01254 4.51323 5.10865 5.86524 5.10865ZM11.3626 5.04445C12.3707 5.04445 13.1879 4.22719 13.1879 3.2191C13.1879 2.211 12.3707 1.39374 11.3626 1.39374C10.3545 1.39374 9.5372 2.211 9.5372 3.2191C9.5372 4.22719 10.3545 5.04445 11.3626 5.04445ZM14.991 9.36064C14.6259 7.06284 13.4233 5.68846 11.3617 5.68846C10.5672 5.68846 9.92296 5.88175 9.38605 6.26824C9.45051 6.33269 9.51489 6.39707 9.6008 6.46153C10.4812 7.38498 11.0826 8.71638 11.3617 10.4129C11.3617 10.4484 11.3682 10.4838 11.374 10.5157C11.3788 10.5417 11.3832 10.5654 11.3832 10.5847C13.3803 10.6062 15.1412 10.2626 14.9909 9.36061L14.991 9.36064ZM1.01104 10.5416C0.817768 11.7227 3.17999 12.1951 5.86433 12.1951C8.54868 12.1951 10.9109 11.7226 10.7176 10.5416C10.2022 7.47072 8.59163 5.64537 5.86433 5.64537C3.13704 5.64537 1.52645 7.44924 1.01104 10.5416Z" fill="white"/>
</svg>
