<svg width="24" height="26" viewBox="0 0 24 26" fill="none" xmlns="http://www.w3.org/2000/svg">
<path fill-rule="evenodd" clip-rule="evenodd" d="M10.1538 2.84615C5.56563 2.84615 1.84615 6.56563 1.84615 11.1538V14.8462C1.84615 19.4344 5.56563 23.1538 10.1538 23.1538H13.8462C18.4344 23.1538 22.1538 19.4344 22.1538 14.8462V11.1538C22.1538 6.56563 18.4344 2.84615 13.8462 2.84615H10.1538ZM0 11.1538C0 5.54603 4.54603 1 10.1538 1H13.8462C19.454 1 24 5.54603 24 11.1538V14.8462C24 20.454 19.454 25 13.8462 25H10.1538C4.54603 25 0 20.454 0 14.8462V11.1538Z" fill="black"/>
<path fill-rule="evenodd" clip-rule="evenodd" d="M11.9446 8.38473C10.4458 8.38473 9.2308 9.59976 9.2308 11.0986C9.2308 12.5974 10.4458 13.8124 11.9446 13.8124C13.4435 13.8124 14.6585 12.5974 14.6585 11.0986C14.6585 9.59976 13.4435 8.38473 11.9446 8.38473ZM7.38464 11.0986C7.38464 8.58016 9.42622 6.53857 11.9446 6.53857C14.4631 6.53857 16.5046 8.58016 16.5046 11.0986C16.5046 13.617 14.4631 15.6586 11.9446 15.6586C9.42622 15.6586 7.38464 13.617 7.38464 11.0986Z" fill="black"/>
<path fill-rule="evenodd" clip-rule="evenodd" d="M12 15.769C8.42982 15.769 5.53848 18.6603 5.53848 22.2305C5.53848 22.7403 5.1252 23.1536 4.6154 23.1536C4.1056 23.1536 3.69232 22.7403 3.69232 22.2305C3.69232 17.6407 7.41021 13.9229 12 13.9229C16.5898 13.9229 20.3077 17.6407 20.3077 22.2305C20.3077 22.7403 19.8944 23.1536 19.3846 23.1536C18.8748 23.1536 18.4616 22.7403 18.4616 22.2305C18.4616 18.6603 15.5702 15.769 12 15.769Z" fill="black"/>
</svg>
