<svg width="44" height="44" viewBox="0 0 44 44" fill="none" xmlns="http://www.w3.org/2000/svg">
<rect x="1" y="1" width="42" height="42" rx="21" fill="#C9B8FF"/>
<rect x="1" y="1" width="42" height="42" rx="21" stroke="black" stroke-width="2"/>
<path fill-rule="evenodd" clip-rule="evenodd" d="M22.7273 14.7273C22.7273 14.3256 22.4017 14 22 14C21.5983 14 21.2727 14.3256 21.2727 14.7273V21.2727H14.7273C14.3256 21.2727 14 21.5983 14 22C14 22.4017 14.3256 22.7273 14.7273 22.7273H21.2727V29.2727C21.2727 29.6744 21.5983 30 22 30C22.4017 30 22.7273 29.6744 22.7273 29.2727V22.7273H29.2727C29.6744 22.7273 30 22.4017 30 22C30 21.5983 29.6744 21.2727 29.2727 21.2727H22.7273V14.7273Z" fill="black"/>
</svg>
