<svg width="22" height="26" viewBox="0 0 22 26" fill="none" xmlns="http://www.w3.org/2000/svg">
<path fill-rule="evenodd" clip-rule="evenodd" d="M0 5.97981C0 3.78745 1.76911 1.99863 3.96296 1.99863H18.037C20.2309 1.99863 22 3.78745 22 5.97981V16.6624C22 18.8547 20.2309 20.6436 18.037 20.6436H13.5835L10.2038 23.6709L10.1703 23.6962C9.1761 24.4464 7.77778 23.7241 7.77778 22.5005V20.6436H3.96296C1.76911 20.6436 0 18.8547 0 16.6624V5.97981ZM3.96296 3.99863C2.88522 3.99863 2 4.88044 2 5.97981V16.6624C2 17.7617 2.88522 18.6436 3.96296 18.6436H8.28395C9.11485 18.6436 9.77778 19.3194 9.77778 20.1404V21.3675L12.4534 18.9708L12.4859 18.9461C12.7458 18.749 13.0619 18.6436 13.3864 18.6436H18.037C19.1148 18.6436 20 17.7617 20 16.6624V5.97981C20 4.88044 19.1148 3.99863 18.037 3.99863H3.96296Z" fill="black"/>
</svg>
