<svg width="20" height="26" viewBox="0 0 20 26" fill="none" xmlns="http://www.w3.org/2000/svg">
<path fill-rule="evenodd" clip-rule="evenodd" d="M1.99594 11.1696C1.99594 6.61434 5.51541 2.99594 9.76065 2.99594C14.0059 2.99594 17.5254 6.61434 17.5254 11.1696C17.5254 13.3816 16.1433 16.3768 14.3191 18.8996C13.4227 20.1393 12.4615 21.2057 11.5904 21.9503C11.1545 22.3229 10.7601 22.5986 10.4244 22.7766C10.0764 22.9612 9.8601 23.0041 9.76065 23.0041C9.6612 23.0041 9.44493 22.9612 9.09689 22.7766C8.76123 22.5986 8.3668 22.3229 7.93088 21.9503C7.05977 21.2057 6.0986 20.1393 5.20222 18.8996C3.37804 16.3768 1.99594 13.3816 1.99594 11.1696ZM9.76065 1C4.328 1 0 5.59905 0 11.1696C0 14.0204 1.68484 17.4415 3.5848 20.0691C4.55048 21.4047 5.61569 22.5971 6.63403 23.4675C7.14283 23.9024 7.65891 24.2733 8.16186 24.54C8.65243 24.8001 9.20289 25 9.76065 25C10.3184 25 10.8689 24.8001 11.3594 24.54C11.8624 24.2733 12.3785 23.9024 12.8873 23.4675C13.9056 22.5971 14.9708 21.4047 15.9365 20.0691C17.8365 17.4415 19.5213 14.0204 19.5213 11.1696C19.5213 5.59905 15.1933 1 9.76065 1ZM6.8641 11.3449C6.8641 9.7452 8.16093 8.44837 9.76065 8.44837C11.3604 8.44837 12.6572 9.7452 12.6572 11.3449C12.6572 12.9446 11.3604 14.2415 9.76065 14.2415C8.16093 14.2415 6.8641 12.9446 6.8641 11.3449ZM9.76065 6.45243C7.0586 6.45243 4.86815 8.64287 4.86815 11.3449C4.86815 14.047 7.0586 16.2374 9.76065 16.2374C12.4627 16.2374 14.6531 14.047 14.6531 11.3449C14.6531 8.64287 12.4627 6.45243 9.76065 6.45243Z" fill="black"/>
</svg>
