<svg width="24" height="24" viewBox="0 0 24 24" fill="none" xmlns="http://www.w3.org/2000/svg">
<rect x="1" y="1" width="22" height="22" rx="11" fill="#C9B8FF"/>
<rect x="1" y="1" width="22" height="22" rx="11" stroke="black" stroke-width="2"/>
<path fill-rule="evenodd" clip-rule="evenodd" d="M12.6364 5.63636C12.6364 5.28491 12.3515 5 12 5C11.6485 5 11.3636 5.28491 11.3636 5.63636V11.3636H5.63636C5.28491 11.3636 5 11.6485 5 12C5 12.3515 5.28491 12.6364 5.63636 12.6364H11.3636V18.3636C11.3636 18.7151 11.6485 19 12 19C12.3515 19 12.6364 18.7151 12.6364 18.3636V12.6364H18.3636C18.7151 12.6364 19 12.3515 19 12C19 11.6485 18.7151 11.3636 18.3636 11.3636H12.6364V5.63636Z" fill="black"/>
</svg>
